<svg width="96" height="32" viewBox="0 0 96 32" fill="none" xmlns="http://www.w3.org/2000/svg">
    <path fill-rule="evenodd" clip-rule="evenodd" d="M25.8065 3.40325C25.8065 1.52369 27.3793 0 29.3195 0H55.3257C57.2659 0 58.8387 1.52369 58.8387 3.40325V28.5968C58.8387 30.4763 57.2659 32 55.3257 32H29.3195C27.3793 32 25.8065 30.4763 25.8065 28.5968V3.40325ZM36.5895 10.5643L32.1982 3.33235L35.1014 1.41802C35.8658 2.66273 37.8386 5.90842 39.6146 8.93353C41.3907 11.9586 40.1757 15.2674 39.3951 16.26L35.1014 23.5864L32.1982 21.6012C32.5244 21.0576 33.0529 20.168 33.655 19.1545L33.6552 19.1541L33.6552 19.154L33.6554 19.1538C34.4494 17.8172 35.3713 16.2653 36.126 15.0074C37.5216 12.6812 36.9895 11.4749 36.6675 10.7446C36.6394 10.681 36.613 10.621 36.5895 10.5643ZM48.0486 21.4367L52.4416 28.6676L49.5389 30.5826C48.7742 29.3381 46.8006 26.0928 45.0239 23.0681C43.2472 20.0434 44.4613 16.7344 45.2417 15.7416L49.5337 8.41423L52.4373 10.3988C52.1118 10.9417 51.5845 11.8297 50.9837 12.8416L50.981 12.8461C50.1872 14.183 49.2656 15.7353 48.5111 16.9935C47.116 19.32 47.6484 20.5262 47.9706 21.2564L47.9707 21.2565C47.9987 21.32 48.0252 21.38 48.0486 21.4367ZM42.3226 18.1507C43.3062 18.1507 44.1035 17.3782 44.1035 16.4254C44.1035 15.4726 43.3062 14.7001 42.3226 14.7001C41.339 14.7001 40.5417 15.4726 40.5417 16.4254C40.5417 17.3782 41.339 18.1507 42.3226 18.1507ZM89.9285 7.86934C90.754 7.86934 91.4504 8.16682 92.0212 8.75729C92.5877 9.34777 92.8757 10.0484 92.8757 10.8548V20.0374C92.8757 20.8772 92.5877 21.5829 92.0212 22.1587C91.4504 22.7347 90.754 23.0227 89.9285 23.0227H81.9704V7.86934H89.9285ZM80.4052 4.5574H78.8262V26.0565H89.9281C90.7537 26.0565 91.5363 25.8887 92.28 25.5576C93.024 25.2259 93.6673 24.7848 94.2193 24.2328C94.7668 23.681 95.1988 23.028 95.5199 22.2837C95.8415 21.5399 96 20.7336 96 19.8741V10.6869C96 9.86133 95.8415 9.07409 95.5199 8.3253C95.1984 7.58134 94.7665 6.92379 94.2193 6.35263C93.6673 5.78612 93.0238 5.34465 92.28 5.02785C91.5361 4.71106 90.7535 4.55759 89.9281 4.55759L80.4052 4.5574ZM0.163136 5.3493V8.50275H11.8657C12.4657 8.50275 12.9744 8.714 13.3969 9.14582C13.8193 9.57817 14.0305 10.1109 14.0305 10.7396V11.6997C14.0305 12.3093 13.8194 12.8277 13.3969 13.2597C12.9744 13.6868 12.4657 13.9029 11.8657 13.9029H0V25.7733H3.12465V17.0852H11.8657C12.6047 17.0852 13.2962 16.946 13.9343 16.6628C14.5727 16.3843 15.1342 15.991 15.6097 15.4964C16.0898 14.9973 16.4688 14.4263 16.752 13.7784C17.0353 13.135 17.1743 12.4392 17.1743 11.7V10.74C17.1743 9.99585 17.0353 9.30001 16.752 8.64227C16.4688 7.98454 16.0896 7.41338 15.6097 6.9288C15.1344 6.43921 14.5729 6.05498 13.9343 5.77664C13.296 5.49348 12.6047 5.34966 11.8657 5.34966L0.163136 5.3493ZM21.6239 7.32215H20.3569V25.7254H21.6239V7.32215ZM62.7651 21.2468V7.49012H64.0711V21.2468C64.0711 21.6789 64.1524 22.0868 64.3159 22.466C64.4793 22.845 64.6996 23.1813 64.983 23.4599C65.2615 23.7428 65.5922 23.9688 65.9672 24.1414C66.3416 24.3099 66.7399 24.3958 67.1622 24.3958H77.468V25.6919H67.1622C66.5671 25.6919 66.0006 25.5721 65.4679 25.3318C64.9395 25.0964 64.4694 24.7802 64.0707 24.3816C63.6675 23.9829 63.3507 23.5125 63.1157 22.9701C62.8851 22.4279 62.7651 21.8564 62.7651 21.2468Z" fill="#604B8F"/>
</svg>
